<svg width="51" height="51" viewBox="0 0 51 51" fill="none" xmlns="http://www.w3.org/2000/svg">
<g id="notification 1">
<path id="Vector" fill-rule="evenodd" clip-rule="evenodd" d="M22.7168 4.78125H28.2848C31.7503 4.78125 34.8184 7.02083 35.8745 10.3213L40.2945 24.1338C41.94 29.2758 38.1037 34.5313 32.7048 34.5313H18.2968C12.8979 34.5313 9.06171 29.2758 10.7071 24.1338L15.1272 10.3213C16.1833 7.02083 19.2515 4.78125 22.7168 4.78125ZM28.2848 7.96875H22.7168C20.6376 7.96875 18.7967 9.3125 18.163 11.2928L13.743 25.1053C12.7558 28.1905 15.0575 31.3438 18.2968 31.3438H32.7048C35.9442 31.3438 38.2459 28.1905 37.2586 25.1053L32.8387 11.2928C32.2049 9.31249 30.3641 7.96875 28.2848 7.96875Z" fill="#323232"/>
<g id="Group">
<path id="Vector_2" fill-rule="evenodd" clip-rule="evenodd" d="M30.3835 42.071C29.0883 43.3661 27.3316 44.0938 25.5 44.0938C23.6684 44.0938 21.9117 43.3661 20.6165 42.071C19.3213 40.7758 18.5938 39.0191 18.5938 37.1875C18.5938 36.3073 19.3073 35.5938 20.1875 35.5938C21.0677 35.5938 21.7812 36.3073 21.7812 37.1875C21.7812 38.1738 22.173 39.1197 22.8704 39.8171C23.5678 40.5145 24.5137 40.9062 25.5 40.9062C26.4863 40.9062 27.4322 40.5145 28.1296 39.8171C28.827 39.1197 29.2188 38.1738 29.2188 37.1875C29.2188 36.3073 29.9323 35.5938 30.8125 35.5938C31.6927 35.5938 32.4062 36.3073 32.4062 37.1875C32.4062 39.0191 31.6787 40.7758 30.3835 42.071Z" fill="#ADD738"/>
<path id="Vector_3" d="M22.1192 17.0645C22.7416 16.4421 23.7506 16.4421 24.373 17.0645L28.8809 21.5722C29.5032 22.1946 29.5032 23.2037 28.8809 23.8261C28.2585 24.4485 27.2493 24.4485 26.6269 23.8261L22.1192 19.3183C21.4967 18.6959 21.4967 17.6868 22.1192 17.0645Z" fill="#ADD738"/>
<path id="Vector_4" d="M28.8808 17.0645C29.5032 17.6869 29.5032 18.6959 28.8808 19.3183L24.373 23.8261C23.7506 24.4485 22.7415 24.4485 22.1192 23.8261C21.4967 23.2038 21.4967 22.1946 22.1192 21.5722L26.6269 17.0645C27.2493 16.4421 28.2584 16.4421 28.8808 17.0645Z" fill="#ADD738"/>
</g>
</g>
</svg>
