<svg width="24" height="24" viewBox="0 0 24 24" fill="none" xmlns="http://www.w3.org/2000/svg">
<g id="fi-rr-angle-double-right" clip-path="url(#clip0_191_2516)">
<path id="Vector" d="M11.83 23.9999C11.6984 24.0007 11.5679 23.9755 11.4461 23.9257C11.3243 23.8759 11.2135 23.8026 11.12 23.7099C11.0263 23.617 10.9519 23.5064 10.9011 23.3845C10.8504 23.2627 10.8242 23.132 10.8242 22.9999C10.8242 22.8679 10.8504 22.7372 10.9011 22.6154C10.9519 22.4935 11.0263 22.3829 11.12 22.2899L19.29 14.1199C19.8518 13.5574 20.1674 12.7949 20.1674 11.9999C20.1674 11.2049 19.8518 10.4424 19.29 9.87994L11.12 1.70994C11.0268 1.6167 10.9528 1.50601 10.9024 1.38419C10.8519 1.26237 10.8259 1.1318 10.8259 0.999941C10.8259 0.73364 10.9317 0.478245 11.12 0.289941C11.3083 0.101638 11.5637 -0.00415039 11.83 -0.00415039C12.0963 -0.00415039 12.3517 0.101638 12.54 0.289941L20.71 8.45994C21.1756 8.9244 21.5451 9.47615 21.7971 10.0836C22.0492 10.6911 22.179 11.3423 22.179 11.9999C22.179 12.6576 22.0492 13.3088 21.7971 13.9163C21.5451 14.5237 21.1756 15.0755 20.71 15.5399L12.54 23.7099C12.4466 23.8026 12.3358 23.8759 12.2139 23.9257C12.0921 23.9755 11.9616 24.0007 11.83 23.9999Z" fill="#D2FA63"/>
<path id="Vector_2" d="M1.83002 23.9999C1.69841 24.0007 1.56795 23.9755 1.44611 23.9257C1.32427 23.8759 1.21346 23.8026 1.12002 23.7099C1.02629 23.617 0.951894 23.5064 0.901126 23.3845C0.850357 23.2627 0.824219 23.132 0.824219 22.9999C0.824219 22.8679 0.850357 22.7372 0.901126 22.6154C0.951894 22.4935 1.02629 22.3829 1.12002 22.2899L10.71 12.7099C10.8037 12.617 10.8781 12.5064 10.9289 12.3845C10.9797 12.2627 11.0058 12.132 11.0058 11.9999C11.0058 11.8679 10.9797 11.7372 10.9289 11.6154C10.8781 11.4935 10.8037 11.3829 10.71 11.2899L1.12002 1.70994C0.931713 1.52164 0.825925 1.26624 0.825925 0.999941C0.825925 0.73364 0.931713 0.478245 1.12002 0.289941C1.30832 0.101638 1.56372 -0.00415039 1.83002 -0.00415039C2.09632 -0.00415039 2.35171 0.101638 2.54002 0.289941L12.12 9.87994C12.6818 10.4424 12.9974 11.2049 12.9974 11.9999C12.9974 12.7949 12.6818 13.5574 12.12 14.1199L2.54002 23.7099C2.44658 23.8026 2.33576 23.8759 2.21392 23.9257C2.09209 23.9755 1.96162 24.0007 1.83002 23.9999Z" fill="#D2FA63"/>
</g>
<defs>
<clipPath id="clip0_191_2516">
<rect width="24" height="24" fill="white"/>
</clipPath>
</defs>
</svg>
