<svg width="24" height="24" viewBox="0 0 24 24" fill="none" xmlns="http://www.w3.org/2000/svg">
<g clip-path="url(#clip0_171_1800)">
<path d="M22.485 10.9753L12 17.2673L1.515 10.9753C1.28758 10.8388 1.01526 10.7983 0.757962 10.8626C0.500662 10.9269 0.279453 11.0909 0.143 11.3183C0.00654566 11.5457 -0.0339759 11.818 0.030349 12.0753C0.094674 12.3326 0.258576 12.5538 0.486 12.6903L11.486 19.2903C11.6415 19.3837 11.8196 19.4331 12.001 19.4331C12.1824 19.4331 12.3605 19.3837 12.516 19.2903L23.516 12.6903C23.7434 12.5538 23.9073 12.3326 23.9717 12.0753C24.036 11.818 23.9955 11.5457 23.859 11.3183C23.7225 11.0909 23.5013 10.9269 23.244 10.8626C22.9867 10.7983 22.7144 10.8388 22.487 10.9753H22.485Z" fill="#D1D5DB"/>
<path d="M22.485 15.5429L12 21.8339L1.515 15.5429C1.40239 15.4753 1.27757 15.4306 1.14768 15.4113C1.01779 15.392 0.885361 15.3984 0.757959 15.4303C0.630557 15.4621 0.510676 15.5187 0.405161 15.5969C0.299645 15.6751 0.210562 15.7733 0.142997 15.8859C0.0754315 15.9985 0.0307078 16.1233 0.0113792 16.2532C-0.00794938 16.3831 -0.00150444 16.5155 0.0303461 16.6429C0.094671 16.9002 0.258573 17.1215 0.485997 17.2579L11.486 23.8579C11.6415 23.9514 11.8196 24.0007 12.001 24.0007C12.1824 24.0007 12.3605 23.9514 12.516 23.8579L23.516 17.2579C23.7434 17.1215 23.9073 16.9002 23.9716 16.6429C24.036 16.3856 23.9955 16.1133 23.859 15.8859C23.7225 15.6585 23.5013 15.4946 23.244 15.4303C22.9867 15.3659 22.7144 15.4064 22.487 15.5429H22.485Z" fill="#D1D5DB"/>
<path d="M11.9997 14.7733C11.4603 14.773 10.9311 14.6261 10.4687 14.3483L0.484684 8.3573C0.336831 8.2684 0.214494 8.14275 0.129564 7.99258C0.0446343 7.84241 0 7.67282 0 7.5003C0 7.32778 0.0446343 7.15819 0.129564 7.00802C0.214494 6.85785 0.336831 6.7322 0.484684 6.6433L10.4687 0.6523C10.9311 0.374529 11.4603 0.227783 11.9997 0.227783C12.5391 0.227783 13.0683 0.374529 13.5307 0.6523L23.5147 6.6433C23.6625 6.7322 23.7849 6.85785 23.8698 7.00802C23.9547 7.15819 23.9994 7.32778 23.9994 7.5003C23.9994 7.67282 23.9547 7.84241 23.8698 7.99258C23.7849 8.14275 23.6625 8.2684 23.5147 8.3573L13.5307 14.3483C13.0683 14.6261 12.5391 14.773 11.9997 14.7733ZM2.94368 7.5003L11.4997 12.6333C11.6508 12.7237 11.8236 12.7714 11.9997 12.7714C12.1758 12.7714 12.3486 12.7237 12.4997 12.6333L21.0557 7.5003L12.4997 2.3673C12.3486 2.27691 12.1758 2.22917 11.9997 2.22917C11.8236 2.22917 11.6508 2.27691 11.4997 2.3673L2.94368 7.5003Z" fill="#D1D5DB"/>
</g>
<defs>
<clipPath id="clip0_171_1800">
<rect width="24" height="24" fill="white"/>
</clipPath>
</defs>
</svg>
