<svg width="20" height="20" viewBox="0 0 20 20" fill="none" xmlns="http://www.w3.org/2000/svg">
<g clip-path="url(#clip0_459_10851)">
<path d="M5.83328 20.0005C5.72361 20.0011 5.61489 19.9801 5.51336 19.9386C5.41183 19.8971 5.31948 19.836 5.24162 19.7588C5.16351 19.6813 5.10151 19.5892 5.05921 19.4876C5.0169 19.3861 4.99512 19.2771 4.99512 19.1671C4.99512 19.0571 5.0169 18.9482 5.05921 18.8466C5.10151 18.7451 5.16351 18.6529 5.24162 18.5755L12.0499 11.7671C12.5181 11.2984 12.7811 10.663 12.7811 10.0005C12.7811 9.33797 12.5181 8.70255 12.0499 8.2338L5.24162 1.42548C5.0847 1.26856 4.99654 1.05573 4.99654 0.833812C4.99654 0.611895 5.0847 0.399066 5.24162 0.242146C5.39854 0.0852268 5.61136 -0.00292969 5.83328 -0.00292969C6.0552 -0.00292969 6.26803 0.0852268 6.42495 0.242146L13.2333 7.05047C13.6213 7.43752 13.9292 7.89731 14.1392 8.40352C14.3493 8.90973 14.4574 9.45241 14.4574 10.0005C14.4574 10.5485 14.3493 11.0912 14.1392 11.5974C13.9292 12.1036 13.6213 12.5634 13.2333 12.9505L6.42495 19.7588C6.34708 19.836 6.25474 19.8971 6.1532 19.9386C6.05167 19.9801 5.94295 20.0011 5.83328 20.0005Z" fill="#D2FA63"/>
</g>
<defs>
<clipPath id="clip0_459_10851">
<rect width="20" height="20" fill="white"/>
</clipPath>
</defs>
</svg>
