<svg width="20" height="20" viewBox="0 0 20 20" fill="none" xmlns="http://www.w3.org/2000/svg">
<g clip-path="url(#clip0_459_13225)">
<path d="M17.0478 3.79587L10.4053 0.105034C10.2815 0.0361509 10.1421 0 10.0003 0C9.85859 0 9.7192 0.0361509 9.59533 0.105034L2.95283 3.79587C2.56316 4.01236 2.23847 4.3291 2.01239 4.71328C1.78631 5.09746 1.66706 5.5351 1.66699 5.98087V15.8334C1.66832 16.938 2.10773 17.9971 2.88884 18.7782C3.66996 19.5593 4.729 19.9987 5.83366 20H14.167C15.2717 19.9987 16.3307 19.5593 17.1118 18.7782C17.8929 17.9971 18.3323 16.938 18.3337 15.8334V5.98087C18.3336 5.5351 18.2143 5.09746 17.9883 4.71328C17.7622 4.3291 17.4375 4.01236 17.0478 3.79587ZM16.667 15.8334C16.667 16.4964 16.4036 17.1323 15.9348 17.6011C15.4659 18.07 14.83 18.3334 14.167 18.3334H5.83366C5.17062 18.3334 4.53473 18.07 4.06589 17.6011C3.59705 17.1323 3.33366 16.4964 3.33366 15.8334V5.98087C3.33329 5.8318 3.37291 5.68536 3.4484 5.55682C3.52388 5.42827 3.63246 5.32233 3.76283 5.25003L10.0003 1.7867L16.2387 5.25003C16.3689 5.32244 16.4773 5.42843 16.5526 5.55697C16.6279 5.6855 16.6674 5.83188 16.667 5.98087V15.8334Z" fill="#323232"/>
<path d="M10 7.08398C10.6904 7.08398 11.25 6.52434 11.25 5.83398C11.25 5.14363 10.6904 4.58398 10 4.58398C9.30964 4.58398 8.75 5.14363 8.75 5.83398C8.75 6.52434 9.30964 7.08398 10 7.08398Z" fill="#323232"/>
</g>
<defs>
<clipPath id="clip0_459_13225">
<rect width="20" height="20" fill="white"/>
</clipPath>
</defs>
</svg>
