<svg width="20" height="20" viewBox="0 0 20 20" fill="none" xmlns="http://www.w3.org/2000/svg">
<g clip-path="url(#clip0_459_10494)">
<path d="M2.37399 19.625C2.82902 19.8195 3.33211 19.8723 3.81761 19.7765C4.30312 19.6808 4.7485 19.441 5.09565 19.0883L9.99982 14.2108L14.904 19.0883C15.1327 19.3203 15.4051 19.5047 15.7054 19.6307C16.0058 19.7567 16.3282 19.8219 16.654 19.8225C16.9888 19.8215 17.3202 19.7544 17.629 19.625C18.0877 19.4393 18.4799 19.1197 18.7541 18.7077C19.0284 18.2958 19.1721 17.8107 19.1665 17.3158V4.16667C19.1652 3.062 18.7258 2.00296 17.9446 1.22185C17.1635 0.440735 16.1045 0.00132321 14.9998 0L4.99982 0C3.89516 0.00132321 2.83612 0.440735 2.055 1.22185C1.27389 2.00296 0.834476 3.062 0.833153 4.16667V17.3158C0.827775 17.8111 0.971967 18.2964 1.24687 18.7084C1.52178 19.1204 1.9146 19.4399 2.37399 19.625Z" fill="#ADD738"/>
</g>
<defs>
<clipPath id="clip0_459_10494">
<rect width="20" height="20" fill="white"/>
</clipPath>
</defs>
</svg>
