<svg width="47" height="36" viewBox="0 0 47 36" fill="none" xmlns="http://www.w3.org/2000/svg">
<path d="M11.1129 6.42507L4.85827 30.7455H1.3382L7.62195 6.42507H11.1129ZM44.2669 6.42507L38.0122 30.7455H34.4922L40.7759 6.42507H44.2669Z" fill="#D2FA63"/>
<g clip-path="url(#clip0_459_12067)">
<path d="M33.5367 11.0823C32.8706 10.4154 31.789 10.4158 31.1221 11.0823L20.2546 21.9502L15.4245 17.1201C14.7576 16.4532 13.6765 16.4532 13.0095 17.1201C12.3425 17.7871 12.3425 18.8682 13.0095 19.5352L19.0469 25.5725C19.3801 25.9058 19.8171 26.0729 20.2542 26.0729C20.6912 26.0729 21.1286 25.9062 21.4619 25.5725L33.5367 13.4973C34.2037 12.8308 34.2037 11.7492 33.5367 11.0823Z" fill="#D2FA63"/>
</g>
<defs>
<clipPath id="clip0_459_12067">
<rect width="21.5276" height="21.5276" fill="white" transform="translate(12.5093 7.56372)"/>
</clipPath>
</defs>
</svg>
